<svg width="30" height="30" viewBox="0 0 30 30" fill="none" xmlns="http://www.w3.org/2000/svg">
<path fill-rule="evenodd" clip-rule="evenodd" d="M18.0966 5.55261L27.1825 21.3215C27.3825 21.7922 27.47 22.1749 27.495 22.5725C27.545 23.5015 27.22 24.4045 26.5826 25.0993C25.9452 25.7917 25.0829 26.2005 24.1455 26.25H5.84863C5.46119 26.2265 5.07376 26.1385 4.71132 26.0023C2.89913 25.2715 2.02427 23.2154 2.76165 21.433L11.9101 5.54147C12.2226 4.98285 12.6975 4.50102 13.2849 4.19137C14.9846 3.24878 17.1467 3.86809 18.0966 5.55261ZM16.0844 15.9447C16.0844 16.5392 15.597 17.0359 14.9971 17.0359C14.3972 17.0359 13.8973 16.5392 13.8973 15.9447V12.4406C13.8973 11.8448 14.3972 11.363 14.9971 11.363C15.597 11.363 16.0844 11.8448 16.0844 12.4406V15.9447ZM14.9971 21.272C14.3972 21.272 13.8973 20.7753 13.8973 20.182C13.8973 19.5862 14.3972 19.0908 14.9971 19.0908C15.597 19.0908 16.0844 19.5751 16.0844 20.1684C16.0844 20.7753 15.597 21.272 14.9971 21.272Z" fill="#F9FAFB"/>
</svg>
