<svg width="38" height="38" viewBox="0 0 38 38" fill="none" xmlns="http://www.w3.org/2000/svg">
<path fill-rule="evenodd" clip-rule="evenodd" d="M12.0926 5.37574C8.01236 5.37574 5.37611 8.17349 5.37611 12.4897V25.4952C5.37611 26.7064 5.60094 27.7878 5.98569 28.7236C6.0023 28.7037 6.3647 28.2621 6.83743 27.686C7.76127 26.5602 9.10651 24.9209 9.11594 24.9125C10.2116 23.6617 12.2684 21.7965 14.9679 22.9254C15.5595 23.1707 16.0853 23.5067 16.5694 23.816C16.6165 23.8461 16.6632 23.876 16.7096 23.9055C17.6169 24.5119 18.1504 24.7969 18.7046 24.7494C18.9342 24.7177 19.1495 24.6497 19.3538 24.523C20.1243 24.048 22.1219 21.2175 22.72 20.37C22.8077 20.2457 22.8654 20.1641 22.8846 20.1387C24.6104 17.8904 27.2704 17.2887 29.4871 18.6187C29.7848 18.7961 31.9175 20.286 32.6237 20.8845V12.4897C32.6237 8.17349 29.9874 5.37574 25.8929 5.37574H12.0926ZM25.8929 3.16699C31.2399 3.16699 34.8324 6.90683 34.8324 12.4897V25.4952C34.8324 25.6356 34.8177 25.7673 34.803 25.8988C34.7926 25.9913 34.7822 26.0838 34.777 26.1792C34.7736 26.2368 34.772 26.2945 34.7703 26.3522C34.7681 26.4291 34.7659 26.506 34.7596 26.5829C34.7564 26.613 34.7505 26.6419 34.7446 26.6708C34.7386 26.6997 34.7327 26.7286 34.7295 26.7587C34.6773 27.2558 34.5965 27.7308 34.4841 28.1916C34.4575 28.3067 34.4268 28.4177 34.3959 28.5297L34.3891 28.5542C34.2624 29.0007 34.1136 29.4266 33.9347 29.8335C33.9033 29.9019 33.8703 29.9686 33.8372 30.0353C33.8152 30.0797 33.7931 30.1242 33.7716 30.1692C33.5784 30.5571 33.3694 30.9292 33.1272 31.2743C33.0824 31.3382 33.0347 31.3981 32.9869 31.4581C32.9553 31.4977 32.9237 31.5374 32.8929 31.5783C32.6411 31.9045 32.3783 32.2164 32.0806 32.4998C32.0212 32.5563 31.9569 32.6081 31.8927 32.6598C31.8526 32.6921 31.8124 32.7244 31.7734 32.7579C31.4679 33.0207 31.1559 33.2725 30.8124 33.4878C30.7374 33.5349 30.6577 33.5744 30.5783 33.6138C30.527 33.6393 30.4758 33.6647 30.426 33.6921C30.0761 33.8852 29.723 34.0737 29.3383 34.2193C29.2457 34.2545 29.1472 34.2799 29.0484 34.3054C28.9782 34.3235 28.9079 34.3417 28.8395 34.3634C28.8053 34.374 28.771 34.3847 28.7368 34.3953C28.3932 34.5022 28.0506 34.6088 27.6805 34.6722C27.4661 34.7097 27.2386 34.7242 27.0109 34.7386C26.9124 34.7449 26.8138 34.7511 26.7163 34.7592C26.6114 34.7671 26.5086 34.7797 26.4057 34.7924C26.2382 34.813 26.0704 34.8337 25.8929 34.8337H12.0926C11.4973 34.8337 10.9289 34.7735 10.3794 34.6832C10.359 34.6801 10.3401 34.677 10.3213 34.6738L10.3209 34.6737C8.1786 34.3048 6.40052 33.2709 5.15444 31.7113C5.14578 31.7113 5.14239 31.7055 5.13786 31.6977C5.13493 31.6927 5.13153 31.6868 5.12594 31.6812C3.87352 30.1042 3.16577 27.9842 3.16577 25.4952V12.4897C3.16577 6.90683 6.76152 3.16699 12.0926 3.16699H25.8929ZM17.4167 13.4817C17.4167 15.627 15.6217 17.4164 13.4661 17.4164C11.5713 17.4164 9.95572 16.032 9.59364 14.2396C9.53381 13.9707 9.50005 13.6941 9.50005 13.4084C9.50005 11.2477 11.2552 9.49969 13.4246 9.49969C14.5293 9.49969 15.5296 9.96421 16.2461 10.7053C16.9657 11.4204 17.4167 12.406 17.4167 13.4817Z" fill="#A5B4FC"/>
</svg>
