<svg width="22" height="21" viewBox="0 0 22 21" fill="none" xmlns="http://www.w3.org/2000/svg">
<rect y="17.4956" width="16.8704" height="4.95586" rx="2.47793" transform="rotate(-45 0 17.4956)" fill="#FA6262"/>
<path d="M15.5996 2.33609C14.4372 1.8875 13.153 1.8567 11.9657 2.24894C10.7785 2.64118 9.76166 3.43219 9.08853 4.4872C8.4154 5.5422 8.1276 6.79592 8.27417 8.03474C8.42074 9.27356 8.99261 10.4208 9.89235 11.2811C10.7921 12.1413 11.964 12.6613 13.2084 12.7524C14.4529 12.8435 15.6928 12.5002 16.717 11.7808C17.7412 11.0614 18.4863 10.0106 18.8252 8.80734C19.1642 7.60407 19.0761 6.32283 18.576 5.18191L15.5995 8.31124L13.6324 7.37122L12.6246 5.74633L15.5996 2.33609Z" fill="#FA6262"/>
</svg>
